<?xml version="1.0" encoding="utf-8"?>
<!-- Generator: Adobe Illustrator 22.1.0, SVG Export Plug-In . SVG Version: 6.00 Build 0)  -->
<svg version="1.1" id="Layer_1" xmlns="http://www.w3.org/2000/svg" xmlns:xlink="http://www.w3.org/1999/xlink" x="0px" y="0px"
	 viewBox="0 0 24 24" style="enable-background:new 0 0 24 24;" xml:space="preserve">
<style type="text/css">
	.st0{fill:#231F20;}
</style>
<g>
	<path class="st0" d="M12,0C5.65,0,0.484,5.166,0.484,11.516c0,1.729,0.375,3.394,1.117,4.952l0.109,0.225L1.025,24l7.451-1.383
		l0.229-0.064c1.066,0.317,2.173,0.478,3.295,0.478c6.35,0,11.516-5.165,11.516-11.515C23.516,5.166,18.35,0,12,0z M12,21.326
		c-1.035,0-2.055-0.161-3.03-0.477l-0.256-0.083l-0.596,0.183L2.934,21.91l0.52-5.534l-0.316-0.648
		C2.509,14.407,2.19,12.99,2.19,11.516c0-5.41,4.401-9.81,9.81-9.81s9.81,4.4,9.81,9.81C21.81,16.925,17.409,21.326,12,21.326z"/>
	<path class="st0" d="M12.143,15.173h-0.507c-0.372,0-0.675,0.303-0.675,0.676v0.507c0,0.372,0.303,0.676,0.675,0.676h0.507
		c0.373,0,0.676-0.304,0.676-0.676v-0.507C12.819,15.476,12.516,15.173,12.143,15.173z"/>
	<path class="st0" d="M11.9,5.653c-1.04,0-1.891,0.286-2.53,0.849C8.73,7.067,8.368,8.367,8.354,8.423
		C8.304,8.601,8.332,8.78,8.43,8.925c0.098,0.146,0.253,0.238,0.436,0.26l1.03,0.123l0.026-0.162
		c0.113-0.714,0.347-1.241,0.697-1.568c0.351-0.328,0.777-0.487,1.305-0.487c0.546,0,0.993,0.177,1.369,0.54
		c0.374,0.362,0.555,0.769,0.555,1.243c0,0.255-0.062,0.493-0.185,0.707c-0.128,0.224-0.419,0.537-0.863,0.93
		c-0.464,0.409-0.792,0.728-0.977,0.949c-0.254,0.306-0.441,0.613-0.553,0.913c-0.155,0.398-0.234,0.875-0.234,1.417v0.093
		c0.007,0.267,0.307,0.476,0.684,0.476h0.942l0.003-0.167c0.01-0.514,0.045-0.888,0.106-1.114c0.059-0.216,0.15-0.409,0.269-0.573
		c0.126-0.173,0.404-0.45,0.826-0.824c0.667-0.591,1.105-1.083,1.339-1.504c0.236-0.424,0.355-0.893,0.355-1.393
		c0-0.865-0.337-1.612-1.003-2.221C13.894,5.96,13,5.653,11.9,5.653z"/>
</g>
</svg>
