<?xml version="1.0" encoding="utf-8"?>
<!-- Generator: Adobe Illustrator 16.0.0, SVG Export Plug-In . SVG Version: 6.00 Build 0)  -->
<!DOCTYPE svg PUBLIC "-//W3C//DTD SVG 1.1//EN" "http://www.w3.org/Graphics/SVG/1.1/DTD/svg11.dtd">
<svg version="1.1" id="Layer_1" xmlns="http://www.w3.org/2000/svg" xmlns:xlink="http://www.w3.org/1999/xlink" x="0px" y="0px"
	 width="190px" height="50px" viewBox="0 0 190 50" enable-background="new 0 0 190 50" xml:space="preserve">
<g>
	<g>
		<path fill-rule="evenodd" clip-rule="evenodd" fill="#98CA51" d="M32.831,41.893c0-0.356,0-0.712,0-1.066
			c0.12-0.199,0.006-0.431,0.086-0.634c0.415-3.582,2.969-6.227,6.337-7.144c3.474-0.945,7.147,0.429,9.2,3.344
			c0.095,0.134,0.199,0.259,0.299,0.389c0.074,0.083,0.079,0.179,0.053,0.281c-0.179,0.481-0.466,0.913-0.632,1.4
			c-0.765,2.237-0.696,4.431,0.35,6.572c0.108,0.222,0.234,0.434,0.313,0.669c0.031,0.138,0.034,0.271-0.081,0.379
			c-0.355,0.058-0.449,0.402-0.633,0.623c-1.85,2.214-4.198,3.312-7.087,3.216c-4.084-0.135-7.12-2.953-8.048-6.729
			c-0.052-0.216-0.048-0.446-0.071-0.669C32.837,42.321,32.951,42.09,32.831,41.893z"/>
		<path fill-rule="evenodd" clip-rule="evenodd" fill="#464597" d="M63.194,36.479c1.474-1.983,3.389-3.231,5.859-3.622
			c4.327-0.685,8.634,2.215,9.591,6.497c0.68,3.046-0.06,5.749-2.206,7.969c-2.077,2.148-4.685,2.964-7.654,2.477
			c-1.555-0.255-2.933-0.868-4.137-1.938c-0.533-0.473-0.908-1.062-1.432-1.522c-0.126-0.116-0.231-0.238-0.126-0.423
			c1.088-1.583,1.536-3.335,1.394-5.246c-0.107-1.444-0.641-2.747-1.324-4.002C63.145,36.6,63.157,36.536,63.194,36.479z"/>
		<path fill-rule="evenodd" clip-rule="evenodd" fill="#48AADF" d="M63.106,45.99c0.036,0.115,0.072,0.231,0.109,0.348
			c-0.165,0.006-0.234,0.126-0.326,0.239c-1.482,1.819-3.375,3.021-5.696,3.31c-2.422,0.301-4.661-0.279-6.616-1.866
			c-0.709-0.574-1.143-1.362-1.822-1.938c-0.002-0.112-0.005-0.224-0.007-0.336c0-0.302,0.167-0.543,0.285-0.803
			c1.109-2.438,1.095-4.87-0.045-7.295c-0.104-0.222-0.238-0.43-0.251-0.685c0.005-0.061,0.01-0.123,0.016-0.186
			c0.892-1.222,1.911-2.3,3.281-3.004c3.771-1.938,8.08-1.05,10.77,2.231c0.128,0.158,0.26,0.315,0.39,0.472
			c0.002,0.039,0,0.077-0.005,0.114c0.031,0.222-0.089,0.395-0.188,0.573c-1.509,2.736-1.464,5.487-0.079,8.253
			C63.013,45.599,63.157,45.764,63.106,45.99z"/>
		<path fill-rule="evenodd" clip-rule="evenodd" fill="#E6E7E8" d="M85.662,42.266c-0.439-0.014-0.594,0.069-0.582,0.556
			c0.037,1.583,0.005,3.166,0.021,4.749c0.003,0.353-0.051,0.514-0.461,0.499c-0.924-0.033-1.85-0.021-2.775-0.005
			c-0.32,0.006-0.477-0.047-0.476-0.429c0.012-4.42,0.011-8.841,0.001-13.262c-0.001-0.309,0.106-0.375,0.39-0.37
			c0.945,0.015,1.892,0.032,2.836-0.007c0.441-0.019,0.49,0.156,0.485,0.525c-0.019,1.377-0.003,2.755-0.011,4.133
			c-0.002,0.278,0.011,0.446,0.381,0.437c1.316,0.008,2.725-0.032,4.04,0c0.371,0.01,0.384-0.158,0.382-0.437
			c-0.008-1.378,0.008-2.756-0.011-4.133c-0.005-0.369,0.044-0.544,0.484-0.525c0.944,0.039,1.891,0.021,2.836,0.007
			c0.283-0.005,0.391,0.062,0.389,0.37c-0.009,4.421-0.011,8.842,0.001,13.262c0.001,0.382-0.156,0.435-0.476,0.429
			c-0.924-0.016-1.851-0.028-2.774,0.005c-0.411,0.015-0.465-0.146-0.461-0.499c0.017-1.583-0.016-3.166,0.022-4.749
			c0.011-0.486-0.144-0.569-0.584-0.556C87.947,42.307,87.037,42.252,85.662,42.266"/>
		<path fill-rule="evenodd" clip-rule="evenodd" fill="#E6E7E8" d="M111.245,36.971c-2.306-0.003-4.611,0.003-6.916-0.014
			c-0.373-0.003-0.56,0.052-0.523,0.489c0.051,0.61-0.191,1.418,0.115,1.786c0.323,0.387,1.157,0.106,1.767,0.114
			c1.482,0.017,2.965,0.019,4.446-0.004c0.398-0.006,0.54,0.092,0.515,0.508c-0.036,0.636-0.038,1.277,0.001,1.913
			c0.027,0.431-0.143,0.501-0.524,0.497c-1.936-0.017-3.87,0.003-5.805-0.016c-0.395-0.004-0.542,0.088-0.515,0.504
			c0.038,0.553,0.036,1.113,0,1.666c-0.024,0.388,0.101,0.476,0.478,0.473c2.224-0.019,4.447,0.001,6.67-0.019
			c0.412-0.004,0.58,0.071,0.553,0.526c-0.042,0.697-0.043,1.401,0.001,2.099c0.029,0.476-0.133,0.577-0.586,0.575
			c-3.355-0.02-6.71-0.012-10.066-0.01c-0.226,0-0.451,0.013-0.677,0.02c-0.164-0.126-0.094-0.305-0.094-0.459
			c-0.004-4.397-0.004-8.796-0.001-13.193c0-0.14-0.037-0.291,0.069-0.414c3.698,0,7.396,0,11.093,0
			C111.362,34.998,111.362,35.984,111.245,36.971z"/>
		<path fill-rule="evenodd" clip-rule="evenodd" fill="#E6E7E8" d="M156.553,48.079c-1.049-0.007-2.097-0.034-3.145-0.01
			c-0.407,0.01-0.506-0.108-0.504-0.508c0.018-3.248-0.004-6.497,0.022-9.746c0.005-0.511-0.114-0.66-0.632-0.639
			c-1.149,0.047-2.301,0.026-3.451,0.032c-0.219-0.466-0.082-0.959-0.086-1.436c-0.004-0.586-0.102-1.18,0.061-1.761
			c3.767,0.002,7.533,0.02,11.3-0.011c0.593-0.005,0.714,0.182,0.681,0.715c-0.044,0.676-0.03,1.359-0.003,2.036
			c0.015,0.359-0.111,0.44-0.453,0.445c-1.21,0.013-2.423-0.08-3.631,0.05c-0.123,0.211-0.061,0.441-0.061,0.662
			c-0.005,3.176-0.001,6.352-0.009,9.528C156.643,47.65,156.742,47.889,156.553,48.079z"/>
		<path fill-rule="evenodd" clip-rule="evenodd" fill="#E6E7E8" d="M135.723,40.989c0-2.16,0.011-4.319-0.009-6.479
			c-0.004-0.396,0.092-0.525,0.503-0.512c0.904,0.032,1.811,0.033,2.714,0c0.418-0.017,0.499,0.121,0.498,0.511
			c-0.016,3.271,0.001,6.54-0.021,9.81c-0.003,0.457,0.1,0.579,0.566,0.572c1.83-0.031,3.66,0.001,5.49-0.023
			c0.413-0.005,0.519,0.118,0.501,0.514c-0.03,0.739-0.022,1.481-0.001,2.221c0.01,0.338-0.08,0.465-0.442,0.464
			c-3.125-0.013-6.251-0.017-9.377,0.002c-0.46,0.003-0.425-0.237-0.424-0.54C135.726,45.348,135.723,43.169,135.723,40.989z"/>
		<path fill-rule="evenodd" clip-rule="evenodd" fill="#E6E7E8" d="M100.152,34.013c-0.016,0.183-0.046,0.365-0.046,0.547
			c-0.002,4.307-0.002,8.61-0.002,12.915c0.001,0.204-0.028,0.412,0.073,0.604c-0.242-0.129-0.158-0.359-0.158-0.551
			c-0.005-4.315-0.005-8.632,0-12.946C100.02,34.387,99.944,34.163,100.152,34.013z"/>
		<path fill-rule="evenodd" clip-rule="evenodd" fill="#E6E7E8" d="M156.553,48.079c0.114-0.233,0.069-0.483,0.07-0.727
			c0.002-3.176-0.001-6.353,0.007-9.527c0.001-0.191-0.098-0.408,0.082-0.577c0,3.386,0.003,6.771-0.005,10.158
			C156.706,47.633,156.827,47.907,156.553,48.079z"/>
		<path fill-rule="evenodd" clip-rule="evenodd" fill="#E6E7E8" d="M169.769,48.079c0.161-1.155,0.018-2.317,0.076-3.474
			c0.038-0.762-0.12-1.53,0.084-2.285c0,1.717,0.004,3.434-0.005,5.149C169.923,47.679,170.026,47.93,169.769,48.079z"/>
		<path fill-rule="evenodd" clip-rule="evenodd" fill="#E6E7E8" d="M169.929,39.038c-0.2-0.383-0.071-0.79-0.08-1.184
			c-0.03-1.282-0.03-2.563-0.042-3.846c0.198,0.181,0.117,0.42,0.118,0.634C169.932,36.107,169.929,37.572,169.929,39.038z"/>
		<path fill-rule="evenodd" clip-rule="evenodd" fill="#E6E7E8" d="M121.112,45.609c0.829-0.172,1.667-0.063,2.5-0.067
			c0.752-0.003,1.51-0.102,2.258,0.064C124.283,45.608,122.698,45.609,121.112,45.609z"/>
		<path fill-rule="evenodd" clip-rule="evenodd" fill="#E6E7E8" d="M178.324,34.384c0.001-0.297-0.085-0.386-0.38-0.381
			c-0.986,0.016-1.974,0.007-2.96,0.005c-0.183,0-0.383-0.035-0.383,0.247c0,0.042,0,0.084,0,0.126c0,1.317,0,2.634,0,3.951
			c0.041,0.789,0.041,0.789-0.968,0.727c-1.236,0.025-2.471,0.065-3.705-0.021c-0.128-0.232-0.055-0.484-0.063-0.726
			c-0.042-1.435,0.072-2.871-0.06-4.304c-1.068,0-2.139,0.017-3.207-0.009c-0.384-0.009-0.479,0.102-0.479,0.481
			c0.014,4.38,0.013,8.76,0.002,13.14c-0.001,0.345,0.085,0.452,0.439,0.446c1.068-0.018,2.137,0.005,3.206,0.012
			c0.18-0.168,0.09-0.384,0.091-0.575c0.009-1.203-0.004-2.406,0.009-3.608c0.006-0.524-0.074-1.054,0.061-1.575
			c1.395-0.015,2.791-0.01,4.185-0.057c0.463-0.015,0.523,0.152,0.518,0.556c-0.022,1.583,0,3.166-0.016,4.749
			c-0.004,0.347,0.041,0.516,0.457,0.501c0.923-0.034,1.85-0.02,2.774-0.005c0.313,0.004,0.48-0.036,0.479-0.424
			C178.313,43.222,178.315,38.803,178.324,34.384z"/>
		<path fill-rule="evenodd" clip-rule="evenodd" fill="#E6E7E8" d="M148.818,34.013c-0.063,1.066-0.11,2.133,0.025,3.196
			c-0.194-0.088-0.16-0.265-0.16-0.424c-0.003-0.797-0.002-1.595-0.001-2.391C148.683,34.251,148.673,34.104,148.818,34.013z"/>
		<path fill-rule="evenodd" clip-rule="evenodd" fill="#E6E7E8" d="M111.245,36.971c0.078-0.986,0.079-1.973,0-2.958
			c0.272,0.344,0.139,0.747,0.123,1.111C111.34,35.738,111.548,36.374,111.245,36.971z"/>
		<path fill-rule="evenodd" clip-rule="evenodd" fill="#FFFFFF" d="M32.831,41.893c0.1,0.2,0.094,0.416,0.086,0.632
			C32.754,42.332,32.845,42.105,32.831,41.893z"/>
		<path fill-rule="evenodd" clip-rule="evenodd" fill="#FFFFFF" d="M32.917,40.192c0.008,0.216,0.014,0.432-0.086,0.633
			C32.845,40.612,32.754,40.385,32.917,40.192z"/>
		<path fill-rule="evenodd" clip-rule="evenodd" fill="#39A6CF" d="M48.738,36.965c0.782,0.977,1.1,2.153,1.227,3.341
			c0.199,1.863-0.098,3.671-1.088,5.313c-0.031,0.05-0.084,0.086-0.128,0.129C47.091,43.347,47.086,39.379,48.738,36.965z"/>
		<path fill-rule="evenodd" clip-rule="evenodd" fill="#374297" d="M63.106,45.99c-1.872-2.658-1.835-6.798,0.083-9.397
			c0.806,1.067,1.169,2.292,1.395,3.598c0.312,1.818-0.139,3.475-0.878,5.094C63.576,45.571,63.489,45.911,63.106,45.99z"/>
		<path fill-rule="evenodd" clip-rule="evenodd" fill="#E6E7E8" d="M130.405,47.429c-1.646-4.343-3.276-8.692-4.888-13.048
			c-0.121-0.328-0.271-0.382-0.568-0.377c-0.926,0.015-1.853,0.036-2.776-0.008c-0.45-0.021-0.625,0.148-0.771,0.545
			c-1.246,3.378-2.517,6.747-3.775,10.12c-0.417,1.12-0.821,2.245-1.243,3.397c1.157,0,2.227-0.021,3.296,0.011
			c0.403,0.012,0.582-0.141,0.704-0.5c0.226-0.658,0.354-1.354,0.729-1.96c1.586-0.089,3.171-0.085,4.758-0.003
			c0.248,0.699,0.512,1.393,0.737,2.099c0.087,0.27,0.186,0.374,0.494,0.364c0.945-0.029,1.892-0.036,2.837-0.001
			C130.48,48.089,130.612,47.975,130.405,47.429z M124.724,42.782c-0.902-0.009-1.803-0.004-2.78-0.004
			c0.512-1.58,1.005-3.102,1.556-4.802c0.52,1.624,0.979,3.068,1.442,4.51C125.009,42.696,124.958,42.784,124.724,42.782z"/>
		<g>
			<path fill-rule="evenodd" clip-rule="evenodd" fill="#FFFFFF" d="M161.379,28.777c0.199-0.023,0.233-0.021,0.242-0.024
				c-0.006,0,0.019-0.057,0.019-0.249c-0.013-3.425-0.013-6.851-0.013-10.275l-0.001-4.356c0-0.053,0.003-0.107,0.006-0.161
				c0.008-0.122,0.009-0.179-0.01-0.197l-0.257,0.015l-5.333-0.002l-5.333,0.002l-0.223-0.008c-0.043,0.006-0.042,0.072-0.041,0.115
				l0.002,1.556c0.001,1.352,0.004,2.703-0.009,4.055c-0.001,0.072,0.005,0.114,0.011,0.135c0.012-0.005,0.049,0.002,0.114,0.002
				c0.189-0.003,0.357-0.004,0.527-0.004l1.168,0.005c0.303,0,0.605-0.003,0.908-0.015l0.088-0.001c0.135,0,0.546,0,0.717,0.333
				c0.174,0.341-0.084,0.699-0.182,0.834l-0.064,0.088c-0.234,0.327-0.478,0.666-0.849,0.965c-0.889,0.718-2.096,1.115-3.397,1.115
				c-2.6,0-4.808-1.51-5.622-3.848c-0.833-2.386-0.892-4.975-0.172-7.694c0.684-2.589,2.394-3.97,4.943-3.994l0.829,0.007
				c1.648,0.01,3.459,1.616,3.727,3.305l0.012,0.083c0.002,0.014,0.004,0.029,0.006,0.045c2.742-0.001,5.348-0.004,8.003,0.005
				c0.027,0,0.05-0.001,0.067-0.003c-0.002-0.016-0.005-0.037-0.01-0.062c-0.068-0.332-0.146-0.66-0.234-0.985
				c-0.892-3.26-2.507-5.611-4.939-7.188c-1.738-1.127-3.806-1.773-6.32-1.977l-0.083-0.016c-0.023-0.007-0.055-0.01-0.102-0.01
				l-0.243,0.007c-0.098,0-0.233-0.008-0.379-0.061l-0.777,0.002c-0.133,0.049-0.258,0.057-0.357,0.057l-0.185-0.004l-0.126,0.016
				l-0.402,0.054c-0.268,0.036-0.535,0.071-0.803,0.111c-4.521,0.691-7.82,3.022-9.804,6.929c-1.678,3.303-2.104,6.97-1.301,11.209
				c0.645,3.405,2.293,6.158,4.9,8.182c1.971,1.53,4.301,2.378,6.928,2.52c0.317,0.018,0.63,0.026,0.942,0.026
				c3.031,0,5.403-0.882,7.251-2.696c0.115-0.111,0.29-0.256,0.508-0.256l0.08,0.007c0.141,0.022,0.473,0.129,0.441,0.628
				l0.036,0.376c0.042,0.366,0.086,0.745,0.088,1.129c0.001,0.094,0.01,0.142,0.016,0.162c0.015-0.004,0.056,0.005,0.141,0.005
				C158.183,28.752,159.771,28.748,161.379,28.777z"/>
			<g>
				<path fill-rule="evenodd" clip-rule="evenodd" fill="#FFFFFF" d="M104.908,28.776c0.189,0,0.246-0.024,0.258-0.03
					c-0.004-0.002,0.02-0.059,0.018-0.235c-0.028-2.239-0.028-4.324,0.001-6.37c0.004-0.248-0.033-0.302-0.035-0.304
					c-0.001,0-0.056-0.036-0.287-0.036c-2.452,0.012-4.892,0.015-7.331,0.015l-6.499-0.005c-0.036,0-0.073,0-0.108,0.004
					l-0.084,0.003c-0.2,0-0.359-0.062-0.474-0.183c-0.119-0.123-0.173-0.292-0.163-0.503c0.015-0.324,0.008-0.647,0.001-0.971
					c-0.012-0.537-0.023-1.091,0.063-1.651l0.052-0.334l5.856,0c2.284,0,4.567,0,6.852-0.004c0.069,0,0.139,0.006,0.207,0.013
					c0.044,0.004,0.089,0.009,0.132,0.009c0.056-0.032,0.058-0.132,0.056-0.291l-0.003-1.452c-0.005-1.495-0.008-2.989,0.014-4.484
					c0.003-0.205-0.026-0.261-0.03-0.267c-0.005,0-0.065-0.027-0.266-0.027c-1.894,0.012-3.772,0.014-5.652,0.014l-6.097-0.003
					l-0.526,0.002c-0.089,0-0.327,0-0.499-0.182c-0.117-0.124-0.171-0.292-0.159-0.503c0.016-0.325,0.009-0.652,0.002-0.979
					c-0.012-0.534-0.023-1.085,0.062-1.642l0.052-0.334l13.979-0.002c0.06,0,0.12,0.004,0.182,0.008
					c0.12,0.008,0.216-0.002,0.232-0.014l0.137-0.136c-0.036,0.033-0.036-0.024-0.037-0.061l-0.001-6.648
					c0.001-0.094,0.002-0.149-0.002-0.166c-0.045,0.014-0.079,0.017-0.112,0.02c-0.054,0.003-0.107,0.007-0.158,0.007l-7.518-0.002
					C92.013,1.054,87.007,1.053,82,1.045c-0.13,0-0.188,0.011-0.209,0.018c0.004,0.011-0.007,0.063-0.007,0.171
					c0.011,9.12,0.011,18.237,0,27.355c0,0.108,0.011,0.161,0.017,0.181c0.001,0,0.005-0.001,0.011-0.001
					c0.023,0,0.082,0.008,0.189,0.008C89.635,28.763,97.271,28.763,104.908,28.776z"/>
				<polygon fill-rule="evenodd" clip-rule="evenodd" fill="#FFFFFF" points="90.861,11.291 90.861,11.291 90.861,11.293 				"/>
			</g>
			<path fill-rule="evenodd" clip-rule="evenodd" fill="#FFFFFF" d="M53.69,29.174l0.045-0.394c1.073-0.015,2.146-0.02,3.22-0.02
				l3.888,0.006c0.142,0,0.299,0,0.393-0.008c0.009-0.098,0.009-0.263,0.009-0.424c0-4.364,0-8.728,0.004-13.093l-0.004-0.079
				c-0.012-0.16-0.033-0.428,0.171-0.705l0.364-0.491l2.096,3.738c2.019,3.587,4.038,7.174,6.042,10.77
				c0.136,0.244,0.231,0.301,0.505,0.301c1.254-0.01,2.497-0.012,3.739-0.012l4.067,0.005c0.083,0,0.105-0.007,0.109-0.01
				c0.057-0.088,0.053-0.169,0.044-0.297c-0.003-0.062-0.007-0.122-0.007-0.183c0.004-8.947,0.004-17.896,0-26.842
				c0-0.06,0.004-0.121,0.008-0.182c0.008-0.111,0.012-0.186-0.009-0.21c-0.079-0.007-0.118-0.002-0.156,0.001
				c-0.062,0.005-0.123,0.01-0.182,0.01L76.97,1.056l-2.777,0.002c-1.15,0-2.301-0.003-3.452-0.018c0,0-0.002,0-0.003,0
				c-0.264,0-0.319,0.029-0.326,0.033c0.002,0-0.033,0.062-0.031,0.304c0.022,3.446,0.018,6.892,0.015,10.338L70.394,14.1
				l0.004,0.112c0.011,0.186,0.027,0.466-0.154,0.76l-0.347,0.562l-0.515-0.893l-1.531-2.8c-1.913-3.499-3.827-6.998-5.722-10.508
				c-0.139-0.258-0.222-0.287-0.489-0.287c-2.455,0.007-4.902,0.009-7.349,0.009L43.747,1.052c-0.123,0.001-0.146,0.003-0.151,0.004
				c-0.977,2.125-1.978,4.258-2.979,6.39l-0.191,0.409c-0.365,0.78-0.731,1.559-1.109,2.333c-0.098,0.404-0.348,0.491-0.54,0.495
				c-0.001,0-0.001,0-0.001,0c-0.165,0-0.537-0.056-0.667-0.574c-0.042-0.064-0.067-0.106-0.086-0.15l-0.257-0.568
				c-1.234-2.724-2.468-5.449-3.694-8.177c-0.075-0.168-0.087-0.168-0.208-0.168c-1.764,0.008-3.524,0.009-5.284,0.009l-3.799,0.001
				c-0.016,0-0.031,0-0.044,0c0.009,0.018,0.019,0.039,0.03,0.06c0.217,0.421,0.443,0.838,0.673,1.251
				c1.466,2.631,2.933,5.259,4.401,7.887c1.407,2.516,2.814,5.03,4.224,7.545c0.299,0.53,0.437,1.028,0.432,1.565
				c-0.012,1.576-0.012,3.153-0.011,4.729c0,1.47,0,2.939-0.01,4.409c-0.001,0.181,0.016,0.244,0.024,0.263
				c0.004,0,0.056,0.013,0.203,0.013c2.653-0.027,5.252-0.029,7.869,0h0.001c0.25,0,0.301-0.035,0.304-0.037
				c-0.001,0,0.036-0.055,0.034-0.299c-0.018-2.208-0.016-4.415-0.014-6.621l0.001-2.646c-0.001-0.338,0.028-0.703,0.244-1.08
				c1.907-3.349,3.812-6.701,5.717-10.053l3.463-6.091c0.078-0.176,0.205-0.467,0.57-0.522l0.431-0.065l0.029,0.6l0,5.184
				c0.001,7.083,0.002,14.166-0.017,21.249c0,0.284,0.043,0.343,0.045,0.346c0.004,0.002,0.058,0.036,0.31,0.036V29.174
				L53.69,29.174z"/>
			<path fill-rule="evenodd" clip-rule="evenodd" fill="#FFFFFF" d="M187.619,1.131c0.015-0.025,0.031-0.051,0.047-0.076
				c-0.025,0.001-0.051,0.003-0.076,0.003l-3.132-0.002c-1.898,0-3.798,0-5.697-0.013c-0.001,0-0.001,0-0.001,0
				c-0.253,0-0.317,0.027-0.44,0.308c-0.437,0.987-0.901,1.962-1.365,2.938l-3.347,7.076l-0.457-0.88
				c-0.056-0.104-0.102-0.19-0.142-0.279l-0.972-2.144c-1.013-2.236-2.025-4.471-3.042-6.704c-0.021-0.048-0.041-0.098-0.06-0.147
				c-0.021-0.055-0.055-0.141-0.074-0.16c-1.675,0.003-3.291,0.005-4.906,0.005l-4.389-0.003v0c0.445,0.786,0.885,1.574,1.324,2.362
				l2.041,3.643c0.699,1.244,1.399,2.488,2.095,3.735c0.633,1.132,1.263,2.266,1.893,3.4l1.674,3.008
				c0.401,0.718,0.807,1.607,0.776,2.754c-0.053,2.003-0.043,4.043-0.033,6.017c0.003,0.789,0.007,1.579,0.007,2.368
				c0,0.158,0,0.321,0.009,0.418c0.093,0.008,0.246,0.009,0.396,0.009l7.896,0.031l0.046-0.017l0.004-0.074
				c0.013-0.229,0.026-0.456,0.027-0.684l0.006-8.735c0-0.045-0.004-0.091-0.007-0.136c-0.015-0.2-0.034-0.472,0.143-0.74l0.06-0.15
				c0.07-0.164,0.141-0.328,0.228-0.482c1.509-2.663,3.021-5.324,4.535-7.983L187.619,1.131z"/>
			<g>
				<path fill-rule="evenodd" clip-rule="evenodd" fill="#FFFFFF" d="M2.334,19.589c-0.001,0.023-0.001,0.056,0.002,0.102
					l0.029,0.404c0.026,0.398,0.053,0.796,0.113,1.195c0.327,2.156,1.345,3.964,3.023,5.374c1.626,1.364,3.674,2.186,6.447,2.584
					c2.423,0.349,4.877,0.242,7.251-0.316c2.468-0.58,4.167-1.4,5.508-2.659c1.999-1.877,2.833-4.256,2.551-7.275
					c-0.205-2.184-1.198-3.84-3.037-5.063c-2.042-1.358-4.451-1.946-6.782-2.515c-0.271-0.065-0.543-0.129-0.815-0.192
					c-1.361-0.315-2.768-0.643-4.062-1.333c-0.312-0.167-1.261-0.671-1.206-1.718c0.059-1.146,1.16-1.498,1.522-1.613
					c1.012-0.324,2.039-0.351,2.976-0.073c1.208,0.358,2.433,0.969,2.416,2.783l0.534-0.003l0.889,0.001l3.185-0.002
					c1.018,0,2.037,0.002,3.055,0.011h0c0.127,0,0.187-0.012,0.212-0.02c-0.004-0.012-0.002-0.057-0.012-0.135
					c-0.024-0.182-0.04-0.366-0.055-0.549c-0.02-0.22-0.038-0.438-0.072-0.654c-0.364-2.259-1.342-3.967-2.99-5.223
					c-2.225-1.696-4.801-2.109-7.027-2.291l-0.105-0.008l-0.086-0.059c-0.054-0.037-0.188-0.042-0.34-0.029
					c-0.12,0.008-0.237,0.018-0.356,0.006l-0.994,0.009c-0.086-0.016-0.157-0.005-0.224-0.011c-0.113-0.009-0.209-0.002-0.225,0.008
					l-0.082,0.056l-0.558,0.06c-0.346,0.036-0.694,0.072-1.037,0.125C9.292,0.989,7.224,1.948,5.663,3.498
					C4.984,4.173,4.529,5.013,4.208,5.669C3.851,6.442,3.605,7.291,3.461,8.253L3.429,9.551l0.138,1.7
					c0.239,0.802,0.67,1.688,1.305,2.632l0.633,0.627c0.378,0.15,0.685,0.379,0.983,0.6c0.128,0.095,0.256,0.191,0.39,0.278
					l0.324,0.172c0.393,0.213,0.764,0.414,1.163,0.543l3.171,1.052c0.213,0.011,0.396,0.066,0.555,0.168
					c0.497,0.042,0.94,0.209,1.325,0.371l0.201,0.03l2.035,0.613c0.848,0.212,1.582,0.491,2.219,0.846
					c1.023,0.572,1.3,1.299,0.917,2.421c-0.001,0.098-0.034,0.192-0.094,0.271c-0.371,0.856-1.125,1.172-1.819,1.368
					c-0.807,0.156-1.399,0.222-1.956,0.222c-0.907,0-1.699-0.186-2.422-0.568c-1.155-0.476-1.503-1.507-1.687-2.451
					c-0.029-0.15-0.037-0.305-0.042-0.46c-0.007-0.169-0.014-0.299-0.045-0.406l-5.09,0.007c-1.045,0-2.089-0.001-3.134-0.007
					C2.417,19.581,2.366,19.585,2.334,19.589z"/>
				<path fill-rule="evenodd" clip-rule="evenodd" fill="#FFFFFF" d="M18.204,9.317c-0.027-0.022-0.058-0.04-0.085-0.045
					l0.057,0.395l0,0L18.204,9.317z"/>
			</g>
			<g>
				<polygon fill-rule="evenodd" clip-rule="evenodd" fill="#FFFFFF" points="117.304,12.854 117.304,12.858 117.304,12.854 				"/>
				<path fill-rule="evenodd" clip-rule="evenodd" fill="#FFFFFF" d="M133.731,28.767c0.176,0,0.355,0,0.482-0.007
					c-0.032-0.11-0.085-0.259-0.135-0.404l-0.037-0.103c-0.025-0.067-0.051-0.135-0.071-0.205c-0.355-1.234-0.436-2.502-0.513-3.729
					c-0.03-0.477-0.06-0.954-0.106-1.429c-0.315-3.262-1.374-5.31-3.433-6.64l-0.466-0.301l0.513-0.402
					c0.075-0.063,0.146-0.119,0.222-0.162c1.146-0.642,1.988-1.639,2.577-3.049c0.662-1.583,0.854-3.242,0.568-4.928
					c-0.277-1.639-0.987-2.985-2.112-4.003c-1.696-1.537-3.824-2.324-6.327-2.341c-4.196-0.029-8.394-0.021-12.593-0.014
					l-3.888,0.006c-0.06,0-0.121-0.005-0.184-0.01c-0.039-0.003-0.079-0.007-0.117-0.007c-0.062,0.03-0.058,0.104-0.05,0.215
					c0.005,0.062,0.01,0.122,0.01,0.182c-0.005,8.947-0.005,17.896-0.001,26.842c0,0.061-0.004,0.122-0.008,0.183
					c-0.009,0.129-0.012,0.21,0.017,0.25l0.04,0.058c0.035-0.003,0.068-0.004,0.101-0.004l4.142-0.003
					c1.296,0,2.592,0.004,3.887,0.015h0.001c0.21,0,0.267-0.025,0.275-0.029c-0.003-0.001,0.024-0.062,0.022-0.27
					c-0.015-1.615-0.015-3.232-0.015-4.849c0.001-1.244,0.001-2.488-0.006-3.732c-0.002-0.227,0.022-0.483,0.207-0.669
					c0.187-0.187,0.444-0.208,0.622-0.208c1.407,0.027,2.704,0.04,4.036,0.001l0.083,0c1.4,0,2.742,0.968,3.189,2.303
					c0.229,0.681,0.376,1.408,0.452,2.225l0.032,0.357c0.142,1.551,0.288,3.153,0.679,4.686c0.027,0.108,0.047,0.159,0.058,0.183
					c0.01-0.004,0.047,0.001,0.111,0.001c1.302-0.01,2.589-0.012,3.876-0.012L133.731,28.767z M122.509,13.16
					c-0.543,0.077-1.086,0.086-1.498,0.086l-0.952-0.007c-0.138,0-0.271,0.002-0.402,0.006l-1.415-0.005
					c-0.302,0-0.595,0.002-0.886,0.012c-0.004,0-0.008,0-0.012,0c-0.209,0-0.439-0.023-0.614-0.2
					c-0.183-0.185-0.202-0.438-0.2-0.612c0.011-1.016,0.01-2.032,0.008-3.047V8.188c-0.006-0.185-0.013-0.408,0.159-0.585
					c0.114-0.118,0.273-0.177,0.471-0.177h0.029c0.565,0.018,1.127,0.009,1.69,0c0.327-0.004,0.652-0.009,0.978-0.009
					c0.868,0,1.895,0.03,2.929,0.251c1.576,0.337,2.345,1.275,2.284,2.787C125.018,11.999,124.129,12.933,122.509,13.16z"/>
				<polygon fill-rule="evenodd" clip-rule="evenodd" fill="#FFFFFF" points="108.004,28.779 107.998,28.778 108.004,29.168 
					108.004,29.168 				"/>
			</g>
		</g>
	</g>
</g>
</svg>
